<svg xmlns="http://www.w3.org/2000/svg" xmlns:xlink="http://www.w3.org/1999/xlink" width="1080" zoomAndPan="magnify" viewBox="0 0 810 809.999993" height="1080" preserveAspectRatio="xMidYMid meet" version="1.0"><path fill="#ffffff" d="M 535.980469 303.605469 C 535.980469 339.632812 536.480469 375.660156 535.980469 411.6875 C 535.84375 413.777344 535.65625 415.867188 535.417969 417.949219 C 535.179688 420.03125 534.894531 422.109375 534.5625 424.179688 C 534.226562 426.246094 533.84375 428.308594 533.410156 430.359375 C 532.980469 432.410156 532.5 434.453125 531.972656 436.480469 C 531.445312 438.511719 530.871094 440.527344 530.25 442.527344 C 529.628906 444.53125 528.960938 446.515625 528.242188 448.488281 C 527.527344 450.457031 526.765625 452.410156 525.960938 454.347656 C 525.152344 456.28125 524.300781 458.195312 523.402344 460.089844 C 522.503906 461.984375 521.5625 463.859375 520.578125 465.707031 C 519.59375 467.558594 518.5625 469.386719 517.492188 471.1875 C 516.421875 472.988281 515.308594 474.765625 514.152344 476.515625 C 513 478.265625 511.800781 479.988281 510.566406 481.679688 C 509.332031 483.375 508.054688 485.039062 506.742188 486.671875 C 505.429688 488.304688 504.074219 489.90625 502.6875 491.476562 C 501.296875 493.046875 499.871094 494.585938 498.410156 496.085938 C 496.949219 497.589844 495.453125 499.058594 493.921875 500.492188 C 492.390625 501.921875 490.828125 503.320312 489.230469 504.679688 C 487.632812 506.039062 486.007812 507.359375 484.347656 508.640625 C 482.691406 509.925781 481.003906 511.167969 479.285156 512.371094 C 477.566406 513.574219 475.824219 514.734375 474.050781 515.855469 C 472.28125 516.976562 470.484375 518.058594 468.660156 519.09375 C 466.839844 520.128906 464.992188 521.125 463.125 522.074219 C 461.253906 523.023438 459.363281 523.929688 457.453125 524.789062 C 455.542969 525.652344 453.609375 526.464844 451.660156 527.238281 C 449.710938 528.007812 447.742188 528.730469 445.757812 529.410156 C 443.777344 530.085938 441.777344 530.714844 439.761719 531.300781 C 437.75 531.882812 435.722656 532.421875 433.683594 532.910156 C 431.644531 533.398438 429.597656 533.835938 427.535156 534.230469 C 425.476562 534.621094 423.410156 534.964844 421.332031 535.257812 C 419.257812 535.554688 417.175781 535.800781 415.089844 535.996094 C 413 536.195312 410.910156 536.339844 408.816406 536.441406 C 406.722656 536.539062 404.625 536.585938 402.53125 536.585938 C 400.433594 536.585938 398.335938 536.539062 396.242188 536.441406 C 394.148438 536.339844 392.058594 536.195312 389.972656 535.996094 C 387.882812 535.800781 385.800781 535.554688 383.726562 535.257812 C 381.652344 534.964844 379.582031 534.621094 377.523438 534.230469 C 375.464844 533.835938 373.414062 533.398438 371.375 532.910156 C 369.335938 532.421875 367.308594 531.882812 365.296875 531.300781 C 363.28125 530.714844 361.285156 530.085938 359.300781 529.410156 C 357.316406 528.730469 355.347656 528.007812 353.398438 527.238281 C 351.449219 526.464844 349.519531 525.652344 347.605469 524.789062 C 345.695312 523.929688 343.804688 523.023438 341.933594 522.074219 C 340.066406 521.125 338.21875 520.128906 336.398438 519.09375 C 334.574219 518.058594 332.777344 516.976562 331.007812 515.855469 C 329.234375 514.734375 327.492188 513.574219 325.773438 512.371094 C 324.058594 511.167969 322.371094 509.925781 320.710938 508.640625 C 319.054688 507.359375 317.425781 506.039062 315.828125 504.679688 C 314.234375 503.320312 312.667969 501.921875 311.136719 500.492188 C 309.609375 499.058594 308.113281 497.589844 306.648438 496.085938 C 305.1875 494.585938 303.761719 493.046875 302.371094 491.476562 C 300.984375 489.90625 299.632812 488.304688 298.316406 486.671875 C 297.003906 485.039062 295.730469 483.375 294.492188 481.679688 C 293.257812 479.988281 292.0625 478.265625 290.90625 476.515625 C 289.75 474.765625 288.636719 472.988281 287.566406 471.1875 C 286.496094 469.386719 285.46875 467.558594 284.480469 465.707031 C 283.496094 463.859375 282.554688 461.984375 281.65625 460.089844 C 280.761719 458.195312 279.90625 456.28125 279.101562 454.347656 C 278.292969 452.410156 277.53125 450.457031 276.816406 448.488281 C 276.101562 446.515625 275.433594 444.53125 274.808594 442.527344 C 274.1875 440.527344 273.613281 438.511719 273.085938 436.480469 C 272.558594 434.453125 272.078125 432.410156 271.648438 430.359375 C 271.214844 428.308594 270.832031 426.246094 270.5 424.179688 C 270.164062 422.109375 269.878906 420.03125 269.640625 417.949219 C 269.40625 415.867188 269.21875 413.777344 269.078125 411.6875 C 268.355469 339.242188 268.355469 266.601562 269.078125 193.769531 C 269.167969 190.269531 269.398438 186.777344 269.761719 183.296875 C 270.125 179.816406 270.625 176.351562 271.261719 172.910156 C 271.898438 169.46875 272.667969 166.054688 273.570312 162.675781 C 274.476562 159.292969 275.511719 155.953125 276.679688 152.652344 C 277.84375 149.351562 279.136719 146.101562 280.558594 142.902344 C 281.980469 139.703125 283.527344 136.566406 285.195312 133.488281 C 286.863281 130.410156 288.648438 127.402344 290.550781 124.464844 C 292.457031 121.527344 294.472656 118.667969 296.601562 115.890625 C 298.730469 113.109375 300.964844 110.417969 303.304688 107.816406 C 305.644531 105.210938 308.082031 102.703125 310.621094 100.292969 C 313.15625 97.878906 315.785156 95.570312 318.503906 93.367188 C 321.21875 91.160156 324.019531 89.0625 326.902344 87.078125 C 329.785156 85.09375 332.742188 83.222656 335.773438 81.46875 C 338.800781 79.714844 341.894531 78.082031 345.054688 76.570312 C 348.210938 75.0625 351.421875 73.675781 354.6875 72.417969 C 357.957031 71.160156 361.265625 70.03125 364.621094 69.03125 C 367.976562 68.03125 371.367188 67.167969 374.789062 66.433594 C 378.210938 65.703125 381.65625 65.105469 385.128906 64.640625 C 388.597656 64.179688 392.082031 63.855469 395.574219 63.667969 C 399.070312 63.476562 402.570312 63.425781 406.070312 63.511719 C 409.566406 63.597656 413.058594 63.824219 416.539062 64.183594 C 420.023438 64.542969 423.484375 65.039062 426.929688 65.671875 C 430.371094 66.304688 433.785156 67.070312 437.167969 67.96875 C 440.550781 68.871094 443.890625 69.902344 447.195312 71.0625 C 450.496094 72.226562 453.746094 73.515625 456.949219 74.933594 C 460.148438 76.351562 463.289062 77.894531 466.367188 79.558594 C 469.449219 81.222656 472.457031 83.003906 475.398438 84.90625 C 478.335938 86.804688 481.195312 88.820312 483.976562 90.945312 C 486.761719 93.070312 489.453125 95.300781 492.058594 97.636719 C 494.667969 99.972656 497.175781 102.410156 499.59375 104.945312 C 502.007812 107.476562 504.320312 110.101562 506.527344 112.816406 C 508.738281 115.535156 510.835938 118.332031 512.828125 121.210938 C 516.59375 126.609375 519.933594 132.261719 522.835938 138.167969 C 525.742188 144.078125 528.179688 150.171875 530.148438 156.453125 C 532.121094 162.734375 533.601562 169.128906 534.59375 175.636719 C 535.585938 182.144531 536.074219 188.6875 536.0625 195.273438 C 536.0625 231.550781 535.980469 267.578125 535.980469 303.605469 Z M 535.980469 303.605469 " fill-opacity="1" fill-rule="nonzero"/><path fill="#ffffff" d="M 430.074219 648.328125 L 430.074219 700.988281 C 434.449219 701.691406 438.851562 702.167969 443.28125 702.410156 C 470.195312 702.410156 497.027344 702.410156 523.945312 702.410156 C 529.566406 702.25 535.136719 702.695312 540.660156 703.746094 C 541.460938 703.882812 542.25 704.054688 543.035156 704.261719 C 543.816406 704.46875 544.589844 704.710938 545.351562 704.988281 C 546.113281 705.265625 546.859375 705.574219 547.59375 705.917969 C 548.324219 706.265625 549.039062 706.640625 549.738281 707.050781 C 550.4375 707.460938 551.117188 707.902344 551.777344 708.371094 C 552.4375 708.84375 553.070312 709.34375 553.6875 709.871094 C 554.300781 710.398438 554.886719 710.957031 555.453125 711.535156 C 556.015625 712.117188 556.550781 712.726562 557.058594 713.355469 C 557.570312 713.984375 558.046875 714.636719 558.496094 715.3125 C 558.945312 715.984375 559.363281 716.679688 559.75 717.390625 C 560.136719 718.101562 560.492188 718.828125 560.8125 719.574219 C 561.132812 720.316406 561.421875 721.074219 561.671875 721.84375 C 561.925781 722.613281 562.140625 723.394531 562.324219 724.183594 C 562.503906 724.972656 562.652344 725.769531 562.761719 726.570312 C 562.871094 727.371094 562.941406 728.179688 562.980469 728.988281 C 563.015625 729.796875 563.015625 730.605469 562.980469 731.414062 C 562.828125 733.015625 562.539062 734.589844 562.117188 736.136719 C 561.691406 737.6875 561.136719 739.1875 560.453125 740.640625 C 559.769531 742.09375 558.964844 743.476562 558.039062 744.789062 C 557.117188 746.105469 556.085938 747.328125 554.953125 748.464844 C 553.816406 749.601562 552.589844 750.628906 551.277344 751.554688 C 549.964844 752.476562 548.582031 753.28125 547.128906 753.964844 C 545.675781 754.648438 544.171875 755.203125 542.625 755.628906 C 541.074219 756.050781 539.503906 756.339844 537.902344 756.492188 C 533.890625 756.746094 529.878906 756.746094 525.867188 756.492188 C 443.78125 756.492188 361.417969 756.492188 278.777344 756.492188 C 274.207031 756.867188 269.636719 756.867188 265.066406 756.492188 C 263.570312 756.222656 262.105469 755.832031 260.675781 755.320312 C 259.242188 754.8125 257.863281 754.1875 256.53125 753.449219 C 255.203125 752.714844 253.941406 751.871094 252.75 750.929688 C 251.558594 749.984375 250.453125 748.949219 249.433594 747.820312 C 248.410156 746.695312 247.488281 745.492188 246.664062 744.214844 C 245.84375 742.9375 245.128906 741.601562 244.523438 740.207031 C 243.921875 738.8125 243.433594 737.375 243.066406 735.902344 C 242.699219 734.425781 242.453125 732.929688 242.332031 731.414062 C 242.285156 730.628906 242.277344 729.84375 242.304688 729.058594 C 242.328125 728.273438 242.390625 727.488281 242.484375 726.707031 C 242.578125 725.925781 242.707031 725.152344 242.871094 724.382812 C 243.035156 723.613281 243.234375 722.851562 243.464844 722.101562 C 243.699219 721.351562 243.960938 720.609375 244.257812 719.882812 C 244.554688 719.152344 244.886719 718.441406 245.246094 717.742188 C 245.605469 717.042969 245.996094 716.359375 246.417969 715.695312 C 246.839844 715.03125 247.289062 714.386719 247.765625 713.761719 C 248.246094 713.136719 248.75 712.535156 249.28125 711.957031 C 249.8125 711.375 250.371094 710.820312 250.953125 710.292969 C 251.53125 709.761719 252.136719 709.257812 252.761719 708.78125 C 253.386719 708.304688 254.03125 707.855469 254.699219 707.4375 C 255.363281 707.019531 256.046875 706.628906 256.746094 706.269531 C 257.445312 705.910156 258.160156 705.585938 258.890625 705.289062 C 259.617188 704.992188 260.359375 704.730469 261.113281 704.503906 C 261.863281 704.273438 262.625 704.078125 263.394531 703.914062 C 268.910156 702.753906 274.480469 702.253906 280.113281 702.410156 C 305.191406 702.410156 330.265625 702.410156 355.34375 702.410156 L 373.398438 702.410156 L 373.398438 649.332031 C 358.101562 645.484375 342.886719 642.894531 328.425781 637.878906 C 243.332031 608.457031 189.835938 549.105469 167.769531 461.421875 C 164.949219 449.71875 163.390625 437.847656 163.085938 425.8125 C 162.167969 402.910156 162.085938 380.003906 162.503906 357.101562 C 162.488281 356.230469 162.519531 355.363281 162.589844 354.492188 C 162.660156 353.625 162.773438 352.765625 162.929688 351.90625 C 163.089844 351.050781 163.285156 350.203125 163.527344 349.367188 C 163.765625 348.53125 164.046875 347.707031 164.367188 346.898438 C 164.6875 346.089844 165.046875 345.296875 165.445312 344.523438 C 165.84375 343.746094 166.277344 342.996094 166.75 342.261719 C 167.222656 341.53125 167.730469 340.824219 168.269531 340.144531 C 168.8125 339.460938 169.386719 338.808594 169.992188 338.183594 C 170.597656 337.558594 171.234375 336.964844 171.898438 336.402344 C 172.5625 335.839844 173.253906 335.308594 173.96875 334.8125 C 174.683594 334.320312 175.421875 333.859375 176.183594 333.4375 C 176.945312 333.015625 177.726562 332.632812 178.523438 332.285156 C 179.324219 331.941406 180.136719 331.632812 180.96875 331.367188 C 181.796875 331.101562 182.636719 330.878906 183.488281 330.695312 C 184.339844 330.511719 185.199219 330.371094 186.0625 330.269531 C 186.925781 330.171875 187.796875 330.117188 188.664062 330.101562 C 189.535156 330.089844 190.40625 330.117188 191.273438 330.1875 C 192.140625 330.261719 193.003906 330.375 193.859375 330.53125 C 194.714844 330.6875 195.5625 330.886719 196.398438 331.125 C 197.238281 331.363281 198.058594 331.644531 198.871094 331.964844 C 199.679688 332.285156 200.472656 332.644531 201.246094 333.042969 C 202.019531 333.441406 202.773438 333.878906 203.503906 334.351562 C 204.234375 334.820312 204.941406 335.328125 205.625 335.871094 C 206.304688 336.414062 206.957031 336.984375 207.585938 337.59375 C 208.210938 338.199219 208.804688 338.832031 209.367188 339.496094 C 209.929688 340.160156 210.457031 340.851562 210.953125 341.566406 C 211.449219 342.285156 211.90625 343.023438 212.328125 343.785156 C 212.753906 344.546875 213.136719 345.324219 213.480469 346.125 C 213.828125 346.925781 214.132812 347.738281 214.398438 348.566406 C 214.664062 349.398438 214.890625 350.238281 215.074219 351.089844 C 215.257812 351.9375 215.398438 352.796875 215.496094 353.664062 C 215.59375 354.527344 215.652344 355.394531 215.664062 356.265625 C 216.667969 375.660156 215.664062 395.136719 216.25 414.777344 C 218.003906 484.910156 251.691406 536.316406 310.457031 572.09375 C 312.6875 573.371094 314.945312 574.601562 317.226562 575.789062 C 319.511719 576.972656 321.816406 578.109375 324.148438 579.195312 C 326.480469 580.285156 328.832031 581.324219 331.203125 582.3125 C 333.578125 583.300781 335.972656 584.242188 338.382812 585.132812 C 340.796875 586.023438 343.226562 586.863281 345.675781 587.652344 C 348.125 588.441406 350.585938 589.179688 353.066406 589.863281 C 355.542969 590.550781 358.035156 591.183594 360.542969 591.769531 C 363.046875 592.351562 365.5625 592.878906 368.089844 593.359375 C 370.617188 593.835938 373.152344 594.261719 375.699219 594.632812 C 378.242188 595.003906 380.792969 595.324219 383.351562 595.589844 C 385.910156 595.855469 388.472656 596.066406 391.039062 596.226562 C 393.605469 596.382812 396.175781 596.488281 398.746094 596.539062 C 401.320312 596.59375 403.890625 596.589844 406.460938 596.535156 C 409.03125 596.480469 411.601562 596.371094 414.167969 596.207031 C 416.734375 596.046875 419.296875 595.832031 421.855469 595.5625 C 424.414062 595.292969 426.964844 594.96875 429.507812 594.59375 C 432.050781 594.21875 434.589844 593.789062 437.113281 593.308594 C 439.640625 592.828125 442.15625 592.292969 444.660156 591.707031 C 447.164062 591.121094 449.65625 590.484375 452.132812 589.792969 C 454.609375 589.105469 457.074219 588.363281 459.519531 587.570312 C 461.96875 586.777344 464.394531 585.933594 466.808594 585.042969 C 469.21875 584.148438 471.609375 583.203125 473.984375 582.210938 C 476.355469 581.21875 478.707031 580.175781 481.035156 579.085938 C 483.363281 577.992188 485.667969 576.851562 487.949219 575.667969 C 490.230469 574.480469 492.488281 573.246094 494.71875 571.964844 C 496.949219 570.679688 499.148438 569.355469 501.324219 567.980469 C 503.5 566.609375 505.644531 565.191406 507.761719 563.726562 C 509.875 562.265625 511.960938 560.757812 514.011719 559.210938 C 516.066406 557.660156 518.085938 556.070312 520.070312 554.433594 C 522.058594 552.800781 524.011719 551.128906 525.925781 549.414062 C 527.84375 547.699219 529.722656 545.945312 531.566406 544.152344 C 533.410156 542.359375 535.214844 540.527344 536.984375 538.65625 C 541.058594 534.53125 544.925781 530.21875 548.582031 525.714844 C 552.238281 521.214844 555.667969 516.546875 558.867188 511.710938 C 562.070312 506.875 565.03125 501.894531 567.75 496.773438 C 570.46875 491.652344 572.933594 486.40625 575.140625 481.046875 C 577.351562 475.683594 579.296875 470.226562 580.976562 464.675781 C 582.652344 459.125 584.058594 453.503906 585.191406 447.816406 C 586.324219 442.128906 587.179688 436.398438 587.757812 430.628906 C 588.332031 424.859375 588.628906 419.074219 588.640625 413.273438 C 588.640625 397.308594 588.640625 381.257812 588.640625 365.210938 C 588.488281 360.636719 588.792969 356.09375 589.5625 351.585938 C 589.710938 350.816406 589.894531 350.058594 590.113281 349.308594 C 590.328125 348.554688 590.578125 347.816406 590.863281 347.085938 C 591.144531 346.359375 591.457031 345.644531 591.804688 344.941406 C 592.148438 344.242188 592.527344 343.554688 592.933594 342.886719 C 593.339844 342.21875 593.773438 341.570312 594.238281 340.941406 C 594.703125 340.3125 595.191406 339.707031 595.710938 339.121094 C 596.230469 338.535156 596.769531 337.972656 597.339844 337.433594 C 597.90625 336.894531 598.496094 336.382812 599.109375 335.898438 C 599.722656 335.414062 600.355469 334.957031 601.007812 334.527344 C 601.660156 334.097656 602.332031 333.695312 603.019531 333.324219 C 603.710938 332.957031 604.414062 332.617188 605.132812 332.308594 C 605.851562 332 606.582031 331.726562 607.324219 331.480469 C 608.066406 331.238281 608.820312 331.027344 609.582031 330.851562 C 610.34375 330.675781 611.109375 330.53125 611.886719 330.425781 C 612.660156 330.316406 613.4375 330.242188 614.21875 330.203125 C 615 330.160156 615.78125 330.15625 616.5625 330.1875 C 617.347656 330.183594 618.132812 330.21875 618.917969 330.292969 C 619.703125 330.363281 620.480469 330.472656 621.253906 330.617188 C 622.03125 330.765625 622.796875 330.945312 623.550781 331.164062 C 624.308594 331.382812 625.054688 331.632812 625.785156 331.921875 C 626.519531 332.210938 627.238281 332.53125 627.941406 332.886719 C 628.644531 333.242188 629.328125 333.632812 629.992188 334.050781 C 630.660156 334.472656 631.304688 334.921875 631.929688 335.402344 C 632.550781 335.882812 633.152344 336.394531 633.726562 336.929688 C 634.304688 337.46875 634.851562 338.03125 635.375 338.621094 C 635.898438 339.207031 636.390625 339.820312 636.855469 340.457031 C 637.320312 341.09375 637.753906 341.75 638.160156 342.425781 C 638.5625 343.101562 638.933594 343.796875 639.269531 344.507812 C 639.609375 345.21875 639.910156 345.945312 640.179688 346.683594 C 640.449219 347.425781 640.683594 348.175781 640.882812 348.9375 C 641.082031 349.699219 641.242188 350.46875 641.371094 351.246094 C 641.496094 352.023438 641.585938 352.804688 641.636719 353.589844 C 648.242188 442.027344 634.199219 523.695312 564.148438 586.972656 C 555.527344 594.925781 546.363281 602.195312 536.65625 608.78125 C 526.949219 615.371094 516.808594 621.203125 506.238281 626.28125 C 495.664062 631.359375 484.769531 635.625 473.5625 639.082031 C 462.351562 642.539062 450.949219 645.148438 439.351562 646.90625 C 436.925781 646.992188 434.167969 647.824219 430.074219 648.328125 Z M 430.074219 648.328125 " fill-opacity="1" fill-rule="nonzero"/></svg>