<svg xmlns="http://www.w3.org/2000/svg" xmlns:xlink="http://www.w3.org/1999/xlink" width="1080" zoomAndPan="magnify" viewBox="0 0 810 809.999993" height="1080" preserveAspectRatio="xMidYMid meet" version="1.0"><defs><clipPath id="a0dfdbe855"><path d="M 29.4375 29.4375 L 780.1875 29.4375 L 780.1875 780.1875 L 29.4375 780.1875 Z M 29.4375 29.4375 " clip-rule="nonzero"/></clipPath></defs><g clip-path="url(#a0dfdbe855)"><path fill="#ffffff" d="M 404.996094 29.4375 C 197.1875 29.4375 29.4375 197.1875 29.4375 404.996094 C 29.4375 612.804688 197.1875 780.550781 404.996094 780.550781 C 612.804688 780.550781 780.550781 612.804688 780.550781 404.996094 C 780.550781 197.1875 612.804688 29.4375 404.996094 29.4375 Z M 594.441406 591.105469 C 570.242188 615.308594 538.527344 626.992188 507.648438 626.992188 C 475.933594 626.992188 444.21875 614.472656 420.851562 591.105469 L 205.53125 376.621094 C 188.007812 359.929688 178.828125 337.394531 178.828125 313.191406 C 178.828125 288.988281 188.007812 266.457031 205.53125 249.765625 C 222.222656 232.238281 244.757812 223.058594 268.960938 223.058594 C 293.164062 223.058594 315.695312 232.238281 332.386719 249.765625 L 546.871094 464.25 C 568.570312 485.949219 568.570312 521.835938 546.871094 543.535156 C 525.171875 565.234375 489.285156 565.234375 467.589844 543.535156 L 332.386719 409.167969 C 323.207031 399.988281 323.207031 385.800781 332.386719 377.453125 C 341.566406 368.273438 355.753906 368.273438 364.101562 377.453125 L 498.46875 512.65625 C 503.476562 516.828125 510.152344 516.828125 514.324219 512.65625 C 519.332031 507.648438 519.332031 500.972656 514.324219 496.796875 L 300.675781 281.480469 C 283.148438 264.789062 253.9375 264.789062 237.246094 281.480469 C 228.902344 290.660156 223.894531 301.507812 223.894531 313.191406 C 223.894531 325.710938 228.902344 336.5625 237.246094 344.90625 L 451.730469 558.554688 C 482.609375 589.433594 531.851562 589.433594 562.730469 558.554688 C 577.75 543.535156 585.261719 524.339844 585.261719 503.476562 C 585.261719 482.609375 576.917969 462.582031 562.730469 448.394531 L 348.246094 234.742188 C 339.0625 225.5625 339.0625 211.375 348.246094 203.03125 C 357.425781 193.847656 371.613281 193.847656 379.957031 203.03125 L 593.609375 417.515625 C 616.976562 440.882812 629.496094 471.761719 629.496094 504.308594 C 630.328125 536.859375 617.8125 567.738281 594.441406 591.105469 Z M 594.441406 591.105469 " fill-opacity="1" fill-rule="nonzero"/></g></svg>