<svg xmlns="http://www.w3.org/2000/svg" xmlns:xlink="http://www.w3.org/1999/xlink" width="1080" zoomAndPan="magnify" viewBox="0 0 810 809.999993" height="1080" preserveAspectRatio="xMidYMid meet" version="1.0"><defs><clipPath id="f3409997c0"><path d="M 57.914062 57.914062 L 752.414062 57.914062 L 752.414062 752.085938 L 57.914062 752.085938 Z M 57.914062 57.914062 " clip-rule="nonzero"/></clipPath></defs><g clip-path="url(#f3409997c0)"><path fill="#ffffff" d="M 405 752.085938 C 213.300781 752.085938 57.914062 596.699219 57.914062 405 C 57.914062 213.300781 213.300781 57.914062 405 57.914062 L 752.085938 405 C 752.085938 596.699219 596.699219 752.085938 405 752.085938 Z M 711.796875 402.464844 C 552.351562 384.015625 425.957031 257.621094 407.535156 98.203125 L 394.132812 84.800781 C 222.484375 90.566406 84.613281 231.992188 84.613281 405 C 84.613281 581.667969 228.332031 725.386719 405 725.386719 C 578.007812 725.386719 719.433594 587.511719 725.199219 415.867188 Z M 711.796875 402.464844 " fill-opacity="1" fill-rule="nonzero"/></g></svg>