<svg xmlns="http://www.w3.org/2000/svg" xmlns:xlink="http://www.w3.org/1999/xlink" width="1080" zoomAndPan="magnify" viewBox="0 0 810 809.999993" height="1080" preserveAspectRatio="xMidYMid meet" version="1.0"><defs><clipPath id="21050e5932"><path d="M 343 650.160156 L 468 650.160156 L 468 703.375 L 343 703.375 Z M 343 650.160156 " clip-rule="nonzero"/></clipPath><clipPath id="8b12d3a59f"><path d="M 346 106.433594 L 465 106.433594 L 465 168 L 346 168 Z M 346 106.433594 " clip-rule="nonzero"/></clipPath><clipPath id="65a911419e"><path d="M 37.535156 234 L 123 234 L 123 521 L 37.535156 521 Z M 37.535156 234 " clip-rule="nonzero"/></clipPath><clipPath id="4e64734d85"><path d="M 696 237 L 772.53125 237 L 772.53125 504 L 696 504 Z M 696 237 " clip-rule="nonzero"/></clipPath></defs><g clip-path="url(#21050e5932)"><path fill="#ffffff" d="M 445.652344 650.769531 L 343.421875 650.769531 C 348.460938 680.585938 374.449219 703.375 405.679688 703.375 C 436.90625 703.375 462.902344 680.585938 467.9375 650.769531 L 445.652344 650.769531 " fill-opacity="1" fill-rule="nonzero"/></g><g clip-path="url(#8b12d3a59f)"><path fill="#ffffff" d="M 369.035156 161.648438 C 380.90625 159.207031 393.152344 157.914062 405.679688 157.914062 C 418.210938 157.914062 430.457031 159.207031 442.324219 161.648438 C 446.140625 162.4375 449.921875 163.324219 453.660156 164.351562 C 457.394531 165.367188 461.089844 166.527344 464.742188 167.777344 C 464.066406 133.910156 437.839844 106.578125 405.679688 106.578125 C 373.519531 106.578125 347.292969 133.910156 346.617188 167.777344 C 350.269531 166.527344 353.960938 165.367188 357.707031 164.351562 C 361.4375 163.324219 365.21875 162.4375 369.035156 161.648438 " fill-opacity="1" fill-rule="nonzero"/></g><path fill="#ffffff" d="M 625.011719 568.441406 C 610.5625 554.800781 595.625 540.703125 583.613281 521.296875 C 564.136719 489.835938 576.1875 373.945312 576.527344 370.675781 L 576.398438 369.785156 L 576.433594 368.820312 C 576.503906 366.703125 576.535156 364.734375 576.535156 362.820312 C 576.535156 283.648438 529.402344 216.066406 463.632812 190.574219 C 460.082031 189.203125 456.480469 187.949219 452.828125 186.820312 C 449.25 185.722656 445.625 184.746094 441.957031 183.894531 C 430.265625 181.175781 418.125 179.726562 405.679688 179.726562 C 393.234375 179.726562 381.101562 181.175781 369.398438 183.894531 C 365.730469 184.746094 362.109375 185.722656 358.53125 186.820312 C 354.878906 187.949219 351.277344 189.203125 347.730469 190.574219 C 281.957031 216.066406 234.824219 283.648438 234.824219 362.820312 C 234.824219 364.734375 234.855469 366.703125 234.925781 368.820312 L 234.957031 369.785156 L 234.828125 370.675781 C 235.195312 374.128906 247.207031 489.859375 227.746094 521.296875 C 215.734375 540.703125 200.796875 554.800781 186.347656 568.441406 C 179.167969 575.21875 170.917969 588.660156 165.34375 602.671875 C 159.847656 616.496094 159.03125 625.386719 159.53125 628.957031 L 652.960938 628.957031 C 653.585938 625.800781 652.855469 616.917969 646.8125 602.65625 C 640.964844 588.847656 632.40625 575.421875 625.011719 568.441406 " fill-opacity="1" fill-rule="nonzero"/><path fill="#ffffff" d="M 170.738281 468.363281 C 178.828125 462.601562 180.714844 451.363281 174.953125 443.265625 C 160.285156 422.6875 152.535156 398.394531 152.535156 373.023438 C 152.535156 348.824219 159.636719 325.46875 173.070312 305.484375 C 178.613281 297.238281 176.425781 286.058594 168.179688 280.511719 C 159.933594 274.96875 148.746094 277.15625 143.203125 285.402344 C 125.761719 311.34375 116.542969 341.644531 116.542969 373.023438 C 116.542969 405.925781 126.601562 437.4375 145.636719 464.148438 C 149.148438 469.082031 154.6875 471.707031 160.308594 471.707031 C 163.921875 471.707031 167.570312 470.621094 170.738281 468.363281 " fill-opacity="1" fill-rule="nonzero"/><g clip-path="url(#65a911419e)"><path fill="#ffffff" d="M 81.160156 373.023438 C 81.160156 335.707031 91.832031 299.527344 112.023438 268.382812 C 118.574219 258.277344 115.691406 244.769531 105.582031 238.21875 C 95.476562 231.660156 81.96875 234.542969 75.417969 244.652344 C 50.632812 282.878906 37.535156 327.269531 37.535156 373.023438 C 37.535156 423.371094 53.152344 471.4375 82.710938 512.011719 C 86.984375 517.871094 93.621094 520.980469 100.359375 520.980469 C 104.8125 520.980469 109.308594 519.621094 113.183594 516.800781 C 122.917969 509.707031 125.0625 496.058594 117.96875 486.328125 C 93.890625 453.261719 81.160156 414.078125 81.160156 373.023438 " fill-opacity="1" fill-rule="nonzero"/></g><path fill="#ffffff" d="M 640.523438 278.867188 C 632.359375 284.535156 630.332031 295.746094 635.992188 303.914062 C 650.085938 324.21875 657.53125 348.078125 657.53125 372.910156 C 657.53125 397.027344 650.476562 420.316406 637.125 440.257812 C 631.589844 448.515625 633.804688 459.6875 642.0625 465.21875 C 645.136719 467.277344 648.617188 468.261719 652.058594 468.261719 C 657.859375 468.261719 663.554688 465.464844 667.027344 460.277344 C 684.359375 434.398438 693.523438 404.183594 693.523438 372.910156 C 693.523438 340.710938 683.855469 309.757812 665.566406 283.398438 C 659.902344 275.230469 648.691406 273.203125 640.523438 278.867188 " fill-opacity="1" fill-rule="nonzero"/><g clip-path="url(#4e64734d85)"><path fill="#ffffff" d="M 736.714844 247.777344 C 730.328125 237.566406 716.867188 234.464844 706.652344 240.847656 C 696.441406 247.242188 693.339844 260.699219 699.726562 270.914062 C 718.820312 301.433594 728.90625 336.707031 728.90625 372.910156 C 728.90625 407.335938 719.726562 441.109375 702.363281 470.578125 C 696.246094 480.953125 699.699219 494.328125 710.082031 500.441406 C 713.558594 502.492188 717.371094 503.464844 721.136719 503.464844 C 728.605469 503.464844 735.878906 499.625 739.945312 492.722656 C 761.265625 456.550781 772.53125 415.121094 772.53125 372.910156 C 772.53125 328.511719 760.144531 285.246094 736.714844 247.777344 " fill-opacity="1" fill-rule="nonzero"/></g></svg>